<?xml version="1.0" encoding="UTF-8" standalone="no"?>
<!-- Generator: Adobe Illustrator 24.1.0, SVG Export Plug-In . SVG Version: 6.00 Build 0)  -->

<svg
   version="1.1"
   x="0px"
   y="0px"
   viewBox="0 0 512 512"
   style="enable-background:new 0 0 512 512;"
   xml:space="preserve"
   id="svg21"
   sodipodi:docname="sander.svg"
   inkscape:version="1.1 (c68e22c387, 2021-05-23)"
   xmlns:inkscape="http://www.inkscape.org/namespaces/inkscape"
   xmlns:sodipodi="http://sodipodi.sourceforge.net/DTD/sodipodi-0.dtd"
   xmlns="http://www.w3.org/2000/svg"
   xmlns:svg="http://www.w3.org/2000/svg"><defs
   id="defs25" /><sodipodi:namedview
   id="namedview23"
   pagecolor="#ffffff"
   bordercolor="#666666"
   borderopacity="1.0"
   inkscape:pageshadow="2"
   inkscape:pageopacity="0.0"
   inkscape:pagecheckerboard="0"
   showgrid="false"
   inkscape:zoom="1.4960938"
   inkscape:cx="133.34726"
   inkscape:cy="256.3342"
   inkscape:window-width="1920"
   inkscape:window-height="1009"
   inkscape:window-x="-8"
   inkscape:window-y="-8"
   inkscape:window-maximized="1"
   inkscape:current-layer="svg21" />
<g
   id="_x31_3_Sanding_Machine_x2C__carpentry_x2C__work_tool_x2C__equipment_x2C__construction"
   inkscape:export-filename="C:\Users\Jimothy\Documents\OBS\Hardwood\images\_x31_3_Sanding_Machine_x2C__carpentry_x2C__work_tool_x2C__equipment_x2C__construction.png"
   inkscape:export-xdpi="37.861099"
   inkscape:export-ydpi="37.861099">
	<g
   id="XMLID_14_">
		<path
   id="XMLID_114_"
   style="fill:#89CCFF;"
   d="M251,262.677c-106.145,0-75.452,0-180,0c-16.57,0-30,13.44-30,30v90    c13.832,0,231.18,0,240,0c0-34.676,0-60.907,0-90C281,276.025,267.452,262.677,251,262.677z" />
		<rect
   id="XMLID_1213_"
   x="93"
   y="382.677"
   style="fill:#FFFFFF;"
   width="82"
   height="50" />
		<path
   id="XMLID_1198_"
   style="fill:#FFFFFF;"
   d="M339,382.677v50c-15.418,0-66.023,0-82,0v-50    C266.386,382.677,328.921,382.677,339,382.677z" />
		<path
   id="XMLID_1197_"
   style="fill:#FFFFFF;"
   d="M93,382.677v50H11v-50C26.175,382.677,65.942,382.677,93,382.677z" />
		<rect
   id="XMLID_1196_"
   x="175"
   y="382.677"
   style="fill:#FFFFFF;"
   width="82"
   height="50" />
		<rect
   id="XMLID_1195_"
   x="339"
   y="382.677"
   style="fill:#FFFFFF;"
   width="82"
   height="50" />
		<circle
   id="XMLID_1194_"
   style="fill:#FFFFFF;"
   cx="471"
   cy="322.677"
   r="30" />
		<path
   id="XMLID_1180_"
   style="fill:#FFFFFF;"
   d="M281,302.677h167.65c-10.224,11.405-10.182,28.663,0,40H281V302.677z" />
		<path
   id="XMLID_1166_"
   style="fill:#89CCFF;"
   d="M485.29,85.547c8.637,8.637,8.119,22.716-0.73,30.65l-62.13,56.48l-29.76-29.76    c67.816-62.116,63.549-58.361,65.42-59.71C466.236,77.389,477.836,78.093,485.29,85.547z" />
		<circle
   id="XMLID_1152_"
   style="fill:#FFFFFF;"
   cx="101"
   cy="322.677"
   r="20" />
		<path
   id="XMLID_1148_"
   style="fill:#FFFFFF;"
   d="M422.43,172.677c66.57-60.529,62.213-56.523,62.97-57.28    c-1.013,1.013,9.548-8.724-204.4,187.28v-10c0-13.29-8.66-24.58-20.65-28.5l132.32-121.26L422.43,172.677z" />
		<rect
   id="XMLID_1147_"
   x="41"
   y="112.677"
   style="fill:#FFFFFF;"
   width="40"
   height="50" />
		<path
   id="XMLID_1146_"
   style="fill:#FFFFFF;"
   d="M281,92.677v90c-21.323,0-178.455,0-200,0c0-11.696,0-79.649,0-90H281z" />
		<polygon
   id="XMLID_1429_"
   style="fill:#FFFFFF;"
   points="231,182.677 231,262.677 91,262.677 121,182.677   " />
		<path
   id="XMLID_416_"
   style="fill:#2169AC;"
   d="M101,292.681c-16.542,0-30,13.458-30,30s13.458,30,30,30s30-13.458,30-30    S117.542,292.681,101,292.681z M101,332.681c-5.514,0-10-4.486-10-10s4.486-10,10-10s10,4.486,10,10S106.514,332.681,101,332.681z    " />
		<path
   id="XMLID_387_"
   style="fill:#2169AC;"
   d="M471,282.681c-10.117,0-19.363,3.783-26.415,10H306.72l184.568-169.08    c13.186-11.994,13.675-32.526,1.073-45.128c-0.004-0.004-0.003-0.003-0.003-0.003c-11.793-11.794-30.697-12.243-43.035-1.025    c-105.086,95.532-37.282,33.892-63.621,57.837c-0.652,0.593-1.206,1.269-1.673,1.997L257.51,253.219    c-2.12-0.349-4.293-0.538-6.51-0.538h-10v-60h40c5.522,0,10-4.478,10-10v-90c0-5.522-4.478-10-10-10H81c-5.522,0-10,4.478-10,10    v10H41c-5.522,0-10,4.478-10,10v50c0,5.522,4.478,10,10,10h30v10c0,5.522,4.478,10,10,10h25.57l-22.5,60H71    c-22.056,0-40,17.944-40,40v80H11c-5.522,0-10,4.478-10,10v50c0,5.522,4.478,10,10,10h410c5.522,0,10-4.478,10-10v-50    c0-5.522-4.478-10-10-10H291v-20h153.585c7.052,6.217,16.298,10,26.415,10c22.056,0,40-17.944,40-40S493.056,282.681,471,282.681z     M463.892,91.364c4.392-3.081,10.435-2.642,14.325,1.249c4.587,4.588,4.264,11.962-0.387,16.189l-55.072,50.065l-15.63-15.63    C466.808,88.549,462.86,92.088,463.892,91.364z M392.369,156.764l15.83,15.83L289.381,281.441    c-2.197-7.488-6.527-14.068-12.289-19.04L392.369,156.764z M51,152.681v-30h20v30H51z M91,102.681h180v70    c-36.452,0-142.702,0-180,0C91,158.16,91,117.782,91,102.681z M127.93,192.681H221v60H105.43L127.93,192.681z M21,392.681    c20.87,0,39.002,0,62,0v30H21V392.681z M165,392.681v30h-62v-30H165z M247,392.681v30h-62v-30H247z M329,392.681v30h-62v-30    C279.57,392.681,305.814,392.681,329,392.681z M411,422.681h-62v-30h62V422.681z M51,372.681v-80c0-11.028,8.972-20,20-20    c20.733,0,158.828,0,180,0c10.933,0,20,8.898,20,20c0,21.618,0,66.984,0,80H51z M291,312.681h141.266    c-1.688,6.535-1.689,13.463,0,20H291V312.681z M471,342.681c-11.028,0-20-8.972-20-20s8.972-20,20-20s20,8.972,20,20    S482.028,342.681,471,342.681z" />
	</g>
</g>
<g
   id="Layer_1">
</g>
<path
   style="fill:#000000;stroke:#000000;stroke-width:1.01669;stroke-linecap:round;stroke-dasharray:1.01669, 2.03339;stroke-dashoffset:0.101669;stroke-opacity:0.738928"
   d="M 7.2957901,441.53727 C 4.6669633,440.3905 2.5371711,437.6814 1.6373548,434.33973 1.1803822,432.64267 1.0024784,422.53652 1.1337825,405.7334 1.3294012,380.6999 1.3871347,379.68383 2.7149292,377.90645 5.9816728,373.5336 6.7069754,373.32484 19.430415,373.0953 l 11.650525,-0.21019 0.0039,-40.56266 c 0.0045,-47.54418 0.274136,-50.30043 5.815729,-59.45719 5.225277,-8.6341 13.139407,-14.94875 22.402697,-17.87502 4.61739,-1.45863 6.479331,-1.66387 15.095043,-1.66387 h 9.827973 L 95.42771,223.41514 c 6.1608,-16.45117 11.19736,-30.12023 11.19235,-30.37569 -0.005,-0.25546 -6.45477,-0.55624 -14.332829,-0.66841 -13.247625,-0.18862 -14.462255,-0.30747 -16.167576,-1.58205 -3.907523,-2.92054 -4.582253,-4.55128 -4.828802,-11.6706 l -0.228729,-6.60471 -16.601211,-0.1994 c -18.263711,-0.21936 -18.243239,-0.21483 -21.667655,-4.80146 -1.340528,-1.79549 -1.378114,-2.60882 -1.378114,-29.82091 0,-27.21209 0.03758,-28.02542 1.378114,-29.82092 3.424416,-4.58663 3.403944,-4.58209 21.667655,-4.80146 l 16.601211,-0.1994 0.228729,-6.604711 c 0.246589,-7.120384 0.922041,-8.752222 4.830714,-11.670594 1.842992,-1.376052 1.998985,-1.378374 104.230243,-1.551193 98.72491,-0.166891 102.4681,-0.128627 104.72391,1.070529 1.28668,0.683984 3.01619,2.23507 3.84334,3.446858 l 1.50392,2.203253 v 47.927638 47.92763 l -1.50392,2.20326 c -3.11789,4.56773 -3.75859,4.67851 -27.06007,4.67851 h -20.89815 v 30.41253 30.41253 l 8.52219,-0.004 8.52219,-0.004 62.89993,-57.64593 c 34.59496,-31.70527 63.62055,-58.43758 64.50131,-59.40513 1.30528,-1.43392 50.47544,-46.17476 64.10336,-58.328833 14.63672,-13.053782 36.06476,-10.110939 46.81247,6.429041 6.42083,9.881211 6.11541,23.703422 -0.74406,33.673312 -1.10579,1.60722 -44.12659,41.50197 -95.60178,88.65499 l -93.59123,85.7324 69.19949,0.17021 69.19948,0.1702 4.51828,-3.03025 c 8.51109,-5.70808 20.58846,-7.98688 30.27978,-5.71327 11.61913,2.72588 21.9215,11.02517 27.02589,21.77125 2.93703,6.18325 3.79759,10.05519 3.77471,16.98369 -0.036,10.91918 -3.86483,20.00292 -11.71744,27.7996 -8.09736,8.03969 -16.05472,11.33147 -27.43826,11.35058 -9.09709,0.0153 -15.01819,-1.71519 -22.11865,-6.46426 l -4.80726,-3.2153 h -76.93913 -76.93913 v 10.36032 10.36031 h 66.24842 66.24841 l 2.59748,1.45986 c 1.66994,0.93857 3.08269,2.46219 3.95628,4.26679 1.30801,2.70199 1.35174,3.82005 1.16978,29.90711 -0.18259,26.1746 -0.23611,27.1632 -1.56716,28.94517 -0.75796,1.01475 -2.20873,2.46515 -3.22393,3.22311 l -1.84581,1.37812 -207.32437,0.14265 C 44.192487,442.41277 9.0112582,442.28561 7.2957901,441.53727 Z M 83.21671,407.72846 V 392.35509 H 51.801567 20.386423 v 15.37337 15.37337 H 51.801567 83.21671 Z m 82.2141,0 v -15.37337 h -31.41514 -31.41515 v 15.37337 15.37337 h 31.41515 31.41514 z m 82.2141,0 v -15.37337 h -31.41514 -31.41515 v 15.37337 15.37337 h 31.41515 31.41514 z m 81.54569,0 v -15.37337 h -31.41514 -31.41515 v 15.37337 15.37337 h 31.41515 31.41514 z m 82.2141,0 v -15.37337 h -31.41514 -31.41515 v 15.37337 15.37337 h 31.41515 31.41514 z M 271.03916,330.29997 v -42.67131 l -2.04401,-4.09042 c -2.33901,-4.6808 -4.76488,-6.97153 -9.98732,-9.43098 l -3.67624,-1.73128 h -93.91122 c -88.786747,0 -94.099816,0.0658 -97.367246,1.20579 -4.622015,1.61259 -9.079579,5.66645 -11.378517,10.348 l -1.875651,3.81958 -0.19495,42.61096 -0.19495,42.61097 H 160.72411 271.03916 Z m 207.38133,11.2583 c 9.87783,-3.69577 15.09781,-15.33077 11.59738,-25.84979 -3.58629,-10.77704 -16.70523,-16.33225 -27.14581,-11.49489 -7.65671,3.54753 -11.36507,8.8482 -11.88772,16.99208 -0.4452,6.93724 1.04308,10.95619 5.81198,15.69458 5.87723,5.83962 13.86644,7.56056 21.62417,4.65802 z M 431.962,329.3577 c -0.66817,-3.61144 -0.34611,-13.96353 0.49906,-16.04177 0.45128,-1.10967 -3.18187,-1.16972 -70.78119,-1.16972 h -71.25689 v 10.36032 10.36031 h 71.09413 71.09413 z M 347.6474,228.5953 c 31.48454,-28.85849 58.122,-53.22193 59.19436,-54.14099 l 1.94973,-1.67102 -8.2758,-8.23583 -8.27581,-8.23583 -57.42542,52.62749 c -31.58398,28.94511 -57.52573,52.87905 -57.64833,53.18653 -0.1226,0.30747 1.40378,2.35659 3.39196,4.55359 3.33819,3.68882 6.11032,8.26481 7.83688,12.93645 0.38468,1.04085 0.99381,1.7928 1.35361,1.67101 0.35981,-0.12178 26.41428,-23.83291 57.89882,-52.6914 z m -126.23067,-5.84856 0.17392,-30.24543 h -47.01051 -47.0105 l -10.83415,28.91524 c -5.95878,15.90338 -11.01079,29.59069 -11.22667,30.41624 l -0.39252,1.50099 58.06326,-0.1708 58.06326,-0.17081 z m 49.62243,-85.05483 V 102.26632 H 180.80418 90.569191 v 35.42559 35.42558 h 90.234989 90.23498 z m 179.78995,-3.84335 c 15.24313,-13.8778 28.39958,-26.2544 29.23657,-27.50354 1.85635,-2.77049 2.04197,-7.793522 0.41471,-11.222712 -1.29173,-2.72212 -4.89977,-5.283126 -8.3113,-5.899408 -5.52503,-0.998081 -5.88303,-0.729581 -36.67962,27.50969 l -28.89156,26.49243 7.9073,7.92796 c 4.34902,4.36038 8.06522,7.92796 8.25822,7.92796 0.193,0 12.82256,-11.35457 28.06568,-25.23238 z M 71.185379,137.69191 V 122.31854 H 60.825065 50.464752 v 15.37337 15.37336 h 10.360313 10.360314 z"
   id="path175" /><path
   style="fill:#ffffff;stroke:#000000;stroke-width:1.01669;stroke-linecap:round;stroke-dasharray:1.01669, 2.03339;stroke-dashoffset:0.101669;stroke-opacity:0.738928"
   d="m 51.310839,330.3027 c 0.375059,-47.5458 0.07723,-44.97446 5.906253,-50.99305 3.362054,-3.47138 6.208473,-4.93914 10.928337,-5.6352 1.820456,-0.26847 44.531681,-0.49723 94.913841,-0.50835 l 91.60392,-0.0202 4.21646,1.89611 c 4.98114,2.23999 8.63206,6.04963 10.32578,10.77472 1.06956,2.98383 1.17165,6.90424 1.16864,44.8778 l -0.003,41.60835 H 160.67514 50.979526 Z m 57.666221,21.57899 c 7.88849,-2.05415 14.71794,-7.53617 18.60593,-14.93503 11.60037,-22.07554 -6.2285,-47.58538 -30.832293,-44.11534 -17.35234,2.44731 -29.064572,19.22528 -25.283743,36.21938 3.780804,16.99399 20.603631,27.23341 37.510106,22.83099 z"
   id="path288" /><path
   style="fill:#000000;stroke:#000000;stroke-width:1.01669;stroke-linecap:round;stroke-dasharray:1.01669, 2.03339;stroke-dashoffset:0.101669;stroke-opacity:0.738928"
   d="m 94.245431,351.18879 c -5.516409,-1.30742 -9.15712,-3.28264 -13.373462,-7.25561 -6.069781,-5.71943 -9.368012,-13.68777 -9.145515,-22.09506 0.137956,-5.21283 0.534231,-6.95377 2.662511,-11.69713 1.968126,-4.38642 8.737831,-12.02077 10.665865,-12.02814 0.45953,-0.002 0.835509,-0.23055 0.835509,-0.50843 0,-0.77262 7.045506,-3.45728 10.360314,-3.94775 2.842574,-0.42059 10.120737,-0.20419 12.031327,0.35774 7.5135,2.20978 15.1844,8.14854 18.3539,14.20945 4.06529,7.77388 4.90906,17.745 2.05705,24.30878 -0.31947,0.73525 -0.98028,2.31436 -1.46847,3.50914 -0.48818,1.19477 -1.11497,2.17232 -1.39285,2.17232 -0.27788,0 -0.50524,0.40539 -0.50524,0.90087 0,1.57749 -7.61509,8.23215 -11.39522,9.95803 -6.96777,3.18125 -12.62479,3.78926 -19.685719,2.11579 z m 12.845689,-20.19312 c 5.76751,-4.10683 5.4198,-12.54 -0.7056,-17.11327 -2.86324,-2.13772 -8.277032,-1.87875 -11.458829,0.54812 -2.691998,2.05329 -4.3575,5.21941 -4.3575,8.28361 0,2.93791 2.735261,7.50374 5.363918,8.95372 3.032209,1.67257 8.311761,1.35453 11.158011,-0.67218 z"
   id="path364" /><path
   style="fill:#ffffff;stroke:#000000;stroke-width:1.01669;stroke-linecap:round;stroke-dasharray:1.01669, 2.03339;stroke-dashoffset:0.101669;stroke-opacity:0.738928"
   d="m 415.2555,150.55875 c -3.97878,-3.9956 -6.94096,-7.48743 -6.67268,-7.86578 0.26535,-0.37422 3.94146,-3.81894 8.16914,-7.65494 4.22767,-3.836 7.83707,-7.13922 8.02089,-7.34049 0.18381,-0.20127 3.64282,-3.37378 7.68668,-7.05002 4.04386,-3.67624 7.50287,-6.85691 7.68668,-7.06815 0.45847,-0.52688 15.32349,-13.955451 17.31033,-15.637571 0.88151,-0.746318 2.53582,-2.205367 3.67624,-3.24233 4.00824,-3.644624 7.54799,-5.32049 10.19072,-4.824712 7.97143,1.49545 11.53772,8.457039 8.04963,15.713293 -0.793,1.64968 -2.83913,4.03075 -3.46375,4.03075 -0.18196,0 -1.79491,1.42872 -3.58432,3.17493 -1.78943,1.74622 -6.20407,5.88199 -9.81032,9.1906 -3.60626,3.30862 -8.23457,7.56715 -10.28513,9.4634 -2.05057,1.89625 -4.5076,4.15213 -5.46006,5.01306 -0.95247,0.86092 -4.41148,4.00312 -7.68669,6.98265 -3.27521,2.97954 -7.45884,6.708 -9.29696,8.28548 -1.83812,1.57748 -4.00444,3.57624 -4.81404,4.44168 -0.8096,0.86543 -1.71708,1.57353 -2.01662,1.57353 -0.29954,0 -3.76442,-3.23343 -7.69974,-7.18538 z"
   id="path440" /></svg>
