<?xml version="1.0" encoding="UTF-8" standalone="no"?> <svg xmlns="http://www.w3.org/2000/svg" viewBox="0 0 512 512"><g id="outline"><path d="M478.152,194.844C466.034,177.533,449.644,168,432,168H290.216l-10.332-25.832C278.422,129.409,261.773,120,240,120s-38.422,9.409-39.884,22.168L189.784,168H80c-17.644,0-34.034,9.533-46.152,26.844C22.339,211.286,16,233.005,16,256a118.637,118.637,0,0,0,6.792,39.645,96.865,96.865,0,0,0,4.779,11.177c2.182,4.284,3.367,6.393,6.437,7.512a7.99,7.99,0,0,0,6.881-.671l10.613-4.4-6.077,13.2a8,8,0,0,0,2.269,9.593C57.459,339.87,68.63,344,80,344H432c17.644,0,34.034-9.533,46.152-26.844C489.661,300.714,496,279,496,256S489.661,211.286,478.152,194.844ZM240,136c15.488,0,24,6.009,24,8s-8.512,8-24,8-24-6.009-24-8S224.512,136,240,136ZM60,256c0-17.346,9.159-32,20-32s20,14.654,20,32-9.159,32-20,32S60,273.346,60,256Zm12.066,46.864A28.488,28.488,0,0,0,80,304c20.187,0,36-21.084,36-48s-15.813-48-36-48-36,21.084-36,48c0,13.716,4.112,25.909,10.811,34.578L40.393,296.55A99.742,99.742,0,0,1,32,256c0-19.743,5.312-38.2,14.956-51.981C55.993,191.109,67.728,184,80,184s24.007,7.109,33.044,20.019C122.688,217.8,128,236.257,128,256s-5.312,38.2-14.956,51.981C104.007,320.89,92.272,328,80,328a33.459,33.459,0,0,1-17.245-4.917Zm392.978,5.117C456.007,320.891,444.272,328,432,328H116.964a75.427,75.427,0,0,0,9.188-10.844A92.887,92.887,0,0,0,137,296.232c16.323.856,25.614,4,35.413,7.341a165.512,165.512,0,0,0,17.827,5.283,8,8,0,1,0,3.513-15.609,150.654,150.654,0,0,1-16.183-4.82c-9.707-3.305-19.736-6.7-36.063-7.938a120.375,120.375,0,0,0,2.477-23.719,104.081,104.081,0,0,1,21.608,4.539,8,8,0,0,0,4.811-15.26,121.444,121.444,0,0,0-27.386-5.439,111.861,111.861,0,0,0-5.852-24.376c16.226.866,25.51,4.024,35.249,7.339,7.583,2.582,15.424,5.252,26.409,6.88a8,8,0,1,0,2.347-15.827c-9.549-1.416-16.374-3.739-23.6-6.2-11.924-4.06-24.255-8.252-48.1-8.419-1.058-1.768-2.155-3.5-3.32-5.164A75.427,75.427,0,0,0,116.964,184H184a8,8,0,0,0,15.424,2.971L210.1,160.28c7.213,4.8,17.76,7.72,29.9,7.72s22.683-2.923,29.9-7.72l10.676,26.691A8,8,0,0,0,296,184H432c12.272,0,24.007,7.109,33.044,20.019.188.269.364.552.55.825-4,1.14-7.64,2.376-11.186,3.583-2.947,1-5.731,1.95-8.709,2.845a8,8,0,1,0,4.6,15.324c3.255-.978,6.308-2.017,9.26-3.022,4.507-1.534,8.782-2.984,13.678-4.217a94.069,94.069,0,0,1,5.819,22.468,142.159,142.159,0,0,0-24.65,6.6C442.967,252.321,432.158,256,409.975,256c-3.325,0-6.531-.085-9.529-.252a8,8,0,1,0-.892,15.975c3.3.184,6.8.277,10.421.277,24.831,0,37.418-4.284,49.59-8.427a132.4,132.4,0,0,1,20.4-5.672C479.638,276.924,474.378,294.647,465.044,307.981Z"/><path d="M271.549,263.573c11.435-3.895,22.236-7.573,44.4-7.573,22.182,0,32.991,3.679,44.435,7.573,1.7.578,3.4,1.156,5.129,1.722a8,8,0,1,0,4.971-15.208c-1.67-.545-3.307-1.1-4.945-1.66C353.368,244.284,340.78,240,315.95,240s-37.394,4.284-49.559,8.427c-11.435,3.9-22.236,7.573-44.4,7.573a141.554,141.554,0,0,1-20.818-1.374,8,8,0,1,0-2.344,15.827A157.274,157.274,0,0,0,221.99,272C246.805,272,259.384,267.716,271.549,263.573Z"/><path d="M304.551,216.37c3.553-.245,7.388-.37,11.4-.37,22.182,0,32.992,3.679,44.435,7.573,12.173,4.143,24.76,8.427,49.59,8.427,2.146,0,4.258-.033,6.279-.1a8,8,0,0,0-.508-15.992c-1.852.059-3.794.089-5.771.089-22.182,0-32.991-3.679-44.434-7.573C353.368,204.284,340.781,200,315.95,200c-4.377,0-8.582.137-12.5.408a8,8,0,0,0,1.1,15.962Z"/><path d="M231.993,231.733c.151,0,.3,0,.455-.013,18.171-1.019,28.81-4.642,39.1-8.146q1.5-.51,3-1.016a8,8,0,1,0-5.089-15.169c-1.027.345-2.046.692-3.065,1.039-9.7,3.3-18.854,6.421-34.838,7.318a8,8,0,0,0,.441,15.987Z"/><path d="M438.243,293.242A126.556,126.556,0,0,1,409.975,296c-22.182,0-32.991-3.679-44.435-7.573-3.583-1.22-7.289-2.481-11.358-3.635a8,8,0,1,0-4.364,15.394c3.67,1.04,7.02,2.18,10.567,3.387,12.173,4.143,24.76,8.427,49.59,8.427a142.034,142.034,0,0,0,31.783-3.148,8,8,0,0,0-3.515-15.61Z"/><path d="M315.95,280c-24.815,0-37.394,4.284-49.559,8.427-11.435,3.895-22.236,7.573-44.4,7.573a8,8,0,0,0,0,16c24.815,0,37.394-4.284,49.559-8.427,11.435-3.895,22.236-7.573,44.4-7.573a8,8,0,1,0,0-16Z"/><path d="M336,152h8a8,8,0,0,0,0-16h-8a8,8,0,0,0,0,16Z"/><path d="M376,152h40a8,8,0,0,0,0-16H376a8,8,0,0,0,0,16Z"/></g></svg>