<?xml version="1.0" encoding="iso-8859-1"?>
<!-- Generator: Adobe Illustrator 24.1.0, SVG Export Plug-In . SVG Version: 6.00 Build 0)  -->
<svg version="1.1" xmlns="http://www.w3.org/2000/svg" xmlns:xlink="http://www.w3.org/1999/xlink" x="0px" y="0px"
	 viewBox="0 0 512 512" style="enable-background:new 0 0 512 512;" xml:space="preserve">
<g id="_x31_3_Sanding_Machine_x2C__carpentry_x2C__work_tool_x2C__equipment_x2C__construction">
	<g id="XMLID_14_">
		<path id="XMLID_114_" style="fill:#89CCFF;" d="M251,262.677c-106.145,0-75.452,0-180,0c-16.57,0-30,13.44-30,30v90
			c13.832,0,231.18,0,240,0c0-34.676,0-60.907,0-90C281,276.025,267.452,262.677,251,262.677z"/>
		<rect id="XMLID_1213_" x="93" y="382.677" style="fill:#FFFFFF;" width="82" height="50"/>
		<path id="XMLID_1198_" style="fill:#FFFFFF;" d="M339,382.677v50c-15.418,0-66.023,0-82,0v-50
			C266.386,382.677,328.921,382.677,339,382.677z"/>
		<path id="XMLID_1197_" style="fill:#FFFFFF;" d="M93,382.677v50H11v-50C26.175,382.677,65.942,382.677,93,382.677z"/>
		<rect id="XMLID_1196_" x="175" y="382.677" style="fill:#FFFFFF;" width="82" height="50"/>
		<rect id="XMLID_1195_" x="339" y="382.677" style="fill:#FFFFFF;" width="82" height="50"/>
		<circle id="XMLID_1194_" style="fill:#FFFFFF;" cx="471" cy="322.677" r="30"/>
		<path id="XMLID_1180_" style="fill:#FFFFFF;" d="M281,302.677h167.65c-10.224,11.405-10.182,28.663,0,40H281V302.677z"/>
		<path id="XMLID_1166_" style="fill:#89CCFF;" d="M485.29,85.547c8.637,8.637,8.119,22.716-0.73,30.65l-62.13,56.48l-29.76-29.76
			c67.816-62.116,63.549-58.361,65.42-59.71C466.236,77.389,477.836,78.093,485.29,85.547z"/>
		<circle id="XMLID_1152_" style="fill:#FFFFFF;" cx="101" cy="322.677" r="20"/>
		<path id="XMLID_1148_" style="fill:#FFFFFF;" d="M422.43,172.677c66.57-60.529,62.213-56.523,62.97-57.28
			c-1.013,1.013,9.548-8.724-204.4,187.28v-10c0-13.29-8.66-24.58-20.65-28.5l132.32-121.26L422.43,172.677z"/>
		<rect id="XMLID_1147_" x="41" y="112.677" style="fill:#FFFFFF;" width="40" height="50"/>
		<path id="XMLID_1146_" style="fill:#FFFFFF;" d="M281,92.677v90c-21.323,0-178.455,0-200,0c0-11.696,0-79.649,0-90H281z"/>
		<polygon id="XMLID_1429_" style="fill:#FFFFFF;" points="231,182.677 231,262.677 91,262.677 121,182.677 		"/>
		<path id="XMLID_416_" style="fill:#2169AC;" d="M101,292.681c-16.542,0-30,13.458-30,30s13.458,30,30,30s30-13.458,30-30
			S117.542,292.681,101,292.681z M101,332.681c-5.514,0-10-4.486-10-10s4.486-10,10-10s10,4.486,10,10S106.514,332.681,101,332.681z
			"/>
		<path id="XMLID_387_" style="fill:#2169AC;" d="M471,282.681c-10.117,0-19.363,3.783-26.415,10H306.72l184.568-169.08
			c13.186-11.994,13.675-32.526,1.073-45.128c-0.004-0.004-0.003-0.003-0.003-0.003c-11.793-11.794-30.697-12.243-43.035-1.025
			c-105.086,95.532-37.282,33.892-63.621,57.837c-0.652,0.593-1.206,1.269-1.673,1.997L257.51,253.219
			c-2.12-0.349-4.293-0.538-6.51-0.538h-10v-60h40c5.522,0,10-4.478,10-10v-90c0-5.522-4.478-10-10-10H81c-5.522,0-10,4.478-10,10
			v10H41c-5.522,0-10,4.478-10,10v50c0,5.522,4.478,10,10,10h30v10c0,5.522,4.478,10,10,10h25.57l-22.5,60H71
			c-22.056,0-40,17.944-40,40v80H11c-5.522,0-10,4.478-10,10v50c0,5.522,4.478,10,10,10h410c5.522,0,10-4.478,10-10v-50
			c0-5.522-4.478-10-10-10H291v-20h153.585c7.052,6.217,16.298,10,26.415,10c22.056,0,40-17.944,40-40S493.056,282.681,471,282.681z
			 M463.892,91.364c4.392-3.081,10.435-2.642,14.325,1.249c4.587,4.588,4.264,11.962-0.387,16.189l-55.072,50.065l-15.63-15.63
			C466.808,88.549,462.86,92.088,463.892,91.364z M392.369,156.764l15.83,15.83L289.381,281.441
			c-2.197-7.488-6.527-14.068-12.289-19.04L392.369,156.764z M51,152.681v-30h20v30H51z M91,102.681h180v70
			c-36.452,0-142.702,0-180,0C91,158.16,91,117.782,91,102.681z M127.93,192.681H221v60H105.43L127.93,192.681z M21,392.681
			c20.87,0,39.002,0,62,0v30H21V392.681z M165,392.681v30h-62v-30H165z M247,392.681v30h-62v-30H247z M329,392.681v30h-62v-30
			C279.57,392.681,305.814,392.681,329,392.681z M411,422.681h-62v-30h62V422.681z M51,372.681v-80c0-11.028,8.972-20,20-20
			c20.733,0,158.828,0,180,0c10.933,0,20,8.898,20,20c0,21.618,0,66.984,0,80H51z M291,312.681h141.266
			c-1.688,6.535-1.689,13.463,0,20H291V312.681z M471,342.681c-11.028,0-20-8.972-20-20s8.972-20,20-20s20,8.972,20,20
			S482.028,342.681,471,342.681z"/>
	</g>
</g>
<g id="Layer_1">
</g>
</svg>
