<?xml version="1.0" encoding="UTF-8" standalone="no"?> <svg id="Layer_2_copy_2" data-name="Layer 2 copy 2" xmlns="http://www.w3.org/2000/svg" viewBox="0 0 64 64"><defs><style>.cls-1{fill:#231f20;}</style></defs><title>1</title><path class="cls-1" d="M42.68,22.39a4.37615,4.37615,0,0,0-3.36,1.16L38.1,24.69a1.66142,1.66142,0,0,1-2.09.14,1.64108,1.64108,0,0,1-.42-2.25L38.56,18.07a4.45684,4.45684,0,1,0-8.13-3.11l-.4,2.72a1.69783,1.69783,0,0,1-.47.92l-.49.49a1.67269,1.67269,0,0,1-1.86.34l-2.17-1.01a3.921,3.921,0,0,0-4.53,6.21l1.17,1.26a1.64644,1.64644,0,0,1,0,2.23l-.19.21a1.63758,1.63758,0,0,1-1.21.55,1.744,1.744,0,0,1-1.22-.52L15.7,24.78a4.39887,4.39887,0,1,0-5.32,6.87l4.5,2.47a1.66495,1.66495,0,0,1,.55,2.41l-2.06,2.89A7.75231,7.75231,0,0,0,19.7,51.67a7.3303,7.3303,0,0,0,.81-.04,7.77481,7.77481,0,0,0,5.39-3.05l3.47-4.62a2.91533,2.91533,0,0,1,4.47-.21L36,46.13a6.06191,6.06191,0,0,0,9.33-7.72l-3.07-4.08a1.63292,1.63292,0,0,1,.32-2.3l2.37-1.8a4.37137,4.37137,0,0,0-2.27-7.84Z"/><path class="cls-1" d="M13.59,16.21c2-1.68,1.75-5.15-.56-7.9A7.87808,7.87808,0,0,0,9.26,5.76a5.33646,5.33646,0,0,0-1.44-.21,3.77909,3.77909,0,0,0-2.48.86c-2,1.68-1.75,5.15.56,7.89a7.09577,7.09577,0,0,0,5.2,2.77A3.82788,3.82788,0,0,0,13.59,16.21Z"/><path class="cls-1" d="M22.56,14.05c1.96,0,3.5-2.05,3.5-4.66,0-2.62-1.54-4.66-3.5-4.66-1.97,0-3.51,2.04-3.51,4.66C19.05,12,20.59,14.05,22.56,14.05Z"/><path class="cls-1" d="M42.61,52.4c-2.26-1.3-4.8-.99-5.78.71a3.18153,3.18153,0,0,0,0,3,5.66959,5.66959,0,0,0,2.28,2.36,5.7958,5.7958,0,0,0,2.84.8c.12,0,.23,0,.34-.00995a2.98655,2.98655,0,0,0,2.6-4.5A5.66956,5.66956,0,0,0,42.61,52.4Z"/><path class="cls-1" d="M57.34,37.67c-2.26-1.3-4.8-.99-5.79.71a3.21156,3.21156,0,0,0,.01,3,5.66969,5.66969,0,0,0,2.28,2.36,5.79541,5.79541,0,0,0,2.84.8c.11,0,.23,0,.34-.01a3.20368,3.20368,0,0,0,2.61-1.49,2.88743,2.88743,0,0,0,.38-1.43A4.871,4.871,0,0,0,57.34,37.67Z"/></svg>